<?xml version="1.0" standalone="no"?>
<!DOCTYPE svg PUBLIC "-//W3C//DTD SVG 20010904//EN"
 "http://www.w3.org/TR/2001/REC-SVG-20010904/DTD/svg10.dtd">
<svg version="1.0" xmlns="http://www.w3.org/2000/svg"
 width="260.000000pt" height="260.000000pt" viewBox="0 0 260.000000 260.000000"
 preserveAspectRatio="xMidYMid meet">
<metadata>
Created by potrace 1.14, written by Peter Selinger 2001-2017
</metadata>
<g transform="translate(0.000000,260.000000) scale(0.100000,-0.100000)"
fill="#000000" stroke="none">
<path d="M0 2297 l0 -303 66 -42 c48 -31 70 -40 82 -33 9 4 34 11 54 15 42 8
41 -1 27 159 -9 98 -8 110 10 145 11 20 23 46 26 56 5 18 8 17 35 -9 17 -16
30 -25 30 -19 0 5 7 0 15 -11 15 -19 15 -19 36 2 l22 21 -23 90 c-17 72 -19
94 -10 112 15 28 34 21 38 -16 2 -16 12 -38 23 -49 10 -11 28 -31 39 -45 11
-14 19 -19 20 -12 0 6 -4 12 -10 12 -5 0 -10 11 -10 25 0 13 -13 64 -30 112
l-29 88 -206 3 -205 2 0 -303z m168 -349 c-25 -15 -36 -8 -43 28 -5 28 0 51
22 101 l28 65 3 -93 c2 -67 -1 -95 -10 -101z"/>
<path d="M853 2580 c3 -11 1 -23 -5 -26 -16 -10 52 -45 73 -39 11 4 28 24 39
46 l20 39 -66 0 c-61 0 -66 -1 -61 -20z"/>
<path d="M1078 2579 c-38 -19 -45 -33 -50 -99 -2 -27 -11 -40 -38 -58 -19 -13
-47 -26 -63 -29 -30 -6 -76 -58 -97 -112 -14 -34 -13 -35 28 -70 l42 -36 2
-90 c3 -86 2 -90 -18 -87 -11 1 -47 -13 -79 -33 -32 -19 -62 -35 -67 -35 -4 0
-8 -6 -8 -14 0 -8 -36 -29 -82 -48 -115 -49 -122 -51 -130 -50 -5 1 -8 -3 -8
-9 0 -6 6 -9 14 -6 17 7 30 -18 27 -50 -1 -13 6 -26 19 -33 18 -10 19 -14 9
-27 -34 -40 -147 -98 -240 -121 l-37 -10 16 28 c10 16 19 24 23 18 4 -7 9 -6
14 2 4 7 3 15 -4 19 -6 4 4 12 24 20 36 13 39 31 6 31 -11 0 -38 9 -62 19 -24
11 -47 17 -51 14 -5 -2 -15 0 -22 7 -14 11 -45 20 -81 23 -11 1 -38 14 -60 29
-22 14 -55 29 -73 33 l-32 7 0 -94 0 -94 47 -17 c27 -10 75 -34 108 -53 53
-31 56 -34 26 -28 -27 5 -103 37 -173 72 -5 2 -8 -357 -8 -797 l0 -801 1300 0
1300 0 0 743 0 742 -47 21 c-106 48 -191 74 -251 78 -35 2 -66 7 -69 10 -3 3
-14 1 -24 -5 -14 -7 -19 -6 -19 4 0 15 -96 47 -141 47 -14 0 -29 4 -35 10 -5
5 -35 12 -67 15 -32 3 -61 6 -65 7 -31 6 -137 -55 -110 -64 7 -3 -7 -12 -31
-21 -26 -11 -48 -14 -55 -9 -17 14 -61 -2 -60 -21 1 -10 -5 -17 -15 -17 -27 0
-185 41 -195 51 -17 15 -70 10 -157 -15 l-84 -25 -38 20 c-21 10 -49 19 -63
19 -15 0 -42 13 -62 31 l-36 32 -113 -5 c-90 -4 -113 -3 -113 8 0 7 -8 28 -19
47 -32 58 -35 90 -9 114 44 39 210 146 231 149 12 1 23 3 25 4 1 2 6 3 11 4
22 3 92 69 87 82 -3 8 -9 20 -12 28 -4 11 3 15 28 18 31 3 33 5 34 41 1 56 48
81 60 32 5 -21 9 -23 21 -14 7 7 12 18 9 25 -3 7 2 15 9 18 11 4 13 -3 9 -32
-2 -20 -5 -45 -5 -55 0 -10 -15 -25 -35 -34 -19 -9 -34 -20 -34 -24 0 -5 -24
-20 -52 -35 -29 -15 -65 -33 -80 -41 -16 -8 -25 -20 -22 -27 6 -17 62 -27 71
-13 4 6 1 7 -7 2 -9 -5 -11 -4 -6 3 4 7 12 12 17 12 6 0 31 14 56 31 l45 31
36 -18 c21 -11 39 -21 42 -24 3 -3 16 -11 30 -19 20 -10 22 -11 13 0 -33 34 5
31 44 -4 12 -10 26 -16 32 -13 5 4 12 2 15 -3 8 -12 61 -22 128 -24 32 -1 58
-5 58 -9 0 -10 69 -2 83 10 11 9 126 28 136 23 2 -2 8 3 12 11 7 10 9 9 9 -5
0 -16 8 -17 65 -14 36 3 63 1 60 -3 -5 -7 38 -30 56 -30 6 0 23 -8 37 -18 39
-27 173 -71 202 -67 14 2 39 4 57 4 17 1 39 8 48 17 10 10 24 14 39 10 15 -4
28 0 36 9 7 9 21 13 31 10 11 -4 19 -2 19 4 0 6 16 11 35 11 19 0 35 4 35 9 0
5 14 12 30 16 l30 7 0 291 c-1 258 -2 290 -15 273 -20 -26 -26 -17 -30 43 -2
50 12 70 22 31 9 -32 23 -23 23 15 0 33 -2 35 -35 35 -28 0 -35 -4 -35 -20 0
-11 -6 -20 -14 -20 -9 0 -12 7 -9 20 4 16 0 20 -21 20 -27 0 -27 -1 -20 -46
l7 -47 -32 19 c-18 11 -42 30 -54 43 l-22 23 25 -6 c19 -6 21 -5 10 3 -19 13
-77 14 -85 1 -3 -5 3 -27 15 -49 11 -22 20 -54 20 -70 0 -31 22 -61 45 -61 31
0 82 -35 117 -80 40 -50 63 -96 37 -72 -23 21 -37 13 -44 -27 -11 -63 -29 -70
-59 -22 -16 25 -36 43 -54 47 -15 4 -40 18 -55 31 -16 12 -34 23 -40 23 -62 0
-107 39 -107 90 0 11 -4 20 -10 20 -5 0 -22 24 -36 53 -15 28 -32 55 -39 60
-8 4 -16 21 -20 37 l-7 30 -481 -1 c-452 -1 -484 -2 -519 -20z m219 -171 c-3
-8 -6 -5 -6 6 -1 11 2 17 5 13 3 -3 4 -12 1 -19z m-113 -24 c22 -8 20 -21 -4
-34 -18 -9 -20 -8 -20 15 0 27 1 28 24 19z m907 -42 c23 -73 93 -197 75 -134
-2 9 -7 31 -11 49 l-6 32 42 -22 c23 -12 57 -38 76 -59 32 -35 177 -118 205
-118 7 0 21 14 30 30 20 35 48 40 48 9 0 -13 5 -19 13 -16 9 3 11 -6 9 -34 -4
-37 -22 -67 -22 -36 0 8 -8 22 -19 31 -18 16 -19 15 -36 -26 -14 -36 -19 -40
-28 -28 -15 18 -39 19 -50 2 -6 -9 -12 -9 -25 4 -15 16 -17 15 -27 -9 -15 -37
-45 -18 -45 28 0 42 -7 43 -37 8 l-23 -26 -1 24 c0 15 -3 19 -6 9 -10 -25 -31
-40 -46 -34 -17 6 -32 -12 -17 -21 5 -3 10 -11 10 -16 0 -6 -7 -3 -16 6 -13
13 -15 28 -10 77 l7 62 -71 67 -71 67 12 60 c7 34 16 59 20 56 4 -2 13 -21 20
-42z m46 16 c-3 -8 -6 -5 -6 6 -1 11 2 17 5 13 3 -3 4 -12 1 -19z m-846 -56
c-6 -19 -6 -32 0 -34 6 -2 7 -11 3 -21 -3 -10 -12 -16 -19 -13 -8 3 -11 -2 -8
-13 2 -10 -3 -24 -13 -32 -16 -13 -16 -12 -7 6 6 11 8 26 5 34 -2 7 0 16 5 20
5 3 15 26 22 49 7 24 14 42 17 40 2 -2 0 -18 -5 -36z m1004 -72 c8 -13 -15
-13 -35 0 -12 8 -11 10 7 10 12 0 25 -4 28 -10z m-1275 -117 c0 -12 -19 -28
-24 -22 -2 2 -6 16 -10 32 -6 26 -5 27 14 15 11 -7 20 -18 20 -25z m1111 -33
c5 0 9 -5 9 -11 0 -5 -5 -7 -11 -3 -8 4 -7 0 1 -15 6 -12 9 -27 7 -34 -2 -7
-12 3 -21 21 -12 24 -15 42 -9 65 l7 32 4 -27 c2 -16 8 -28 13 -28z m-321
-649 c12 -21 42 -51 67 -67 36 -22 42 -30 31 -38 -10 -8 -12 -19 -7 -38 9 -34
-6 -47 -48 -41 -35 6 -73 36 -73 59 0 8 -6 25 -14 37 -7 12 -17 35 -20 51 -6
23 -4 27 8 23 12 -5 16 0 16 17 0 20 7 36 16 36 2 0 13 -17 24 -39z m-299
-115 c31 -24 69 -47 85 -50 21 -5 41 -24 74 -72 40 -59 65 -84 86 -84 4 0 4 3
1 7 -4 3 -2 11 3 18 5 6 14 29 18 51 7 31 11 35 17 21 4 -11 2 -30 -5 -45 -7
-15 -12 -40 -11 -56 2 -23 0 -28 -14 -23 -30 12 -5 -12 40 -39 25 -14 52 -24
61 -22 14 2 12 8 -12 37 -21 25 -28 43 -27 72 1 22 -3 39 -8 39 -5 0 -9 4 -9
9 0 21 63 -23 72 -51 6 -17 14 -25 17 -19 5 7 18 0 36 -19 16 -16 34 -30 41
-30 33 0 21 -54 -20 -92 -24 -23 -33 -23 -39 0 -3 12 -5 10 -6 -7 -1 -16 -5
-21 -16 -17 -31 11 -13 -5 43 -41 31 -21 61 -36 66 -35 5 2 4 -3 -3 -11 -7 -9
-21 -13 -33 -9 -15 3 -19 1 -16 -9 3 -8 11 -14 19 -15 8 0 37 -12 66 -27 29
-15 58 -27 64 -27 7 0 17 -8 24 -17 11 -15 9 -19 -9 -28 -17 -9 -26 -8 -46 6
-14 9 -42 24 -62 32 -21 9 -38 23 -38 31 0 14 -48 36 -78 36 -12 0 -12 -3 -2
-15 7 -9 9 -19 5 -23 -4 -4 -10 -1 -12 5 -7 19 -92 73 -98 63 -6 -9 25 -80 35
-80 3 0 20 -13 38 -30 37 -34 65 -31 56 6 -13 53 54 8 72 -48 14 -46 -52 -59
-74 -15 l-11 22 0 -22 c-1 -25 -19 -31 -27 -9 -3 8 -17 17 -31 21 -14 3 -23 9
-19 12 3 3 1 12 -6 20 -9 11 -14 11 -30 -4 -18 -16 -20 -15 -45 10 l-27 27 29
30 c31 32 27 46 -15 52 -15 2 -26 11 -28 23 -6 31 -43 65 -72 65 -14 0 -37 -8
-50 -17 -21 -15 -20 -12 8 22 17 22 50 49 72 60 l40 20 -53 39 c-28 21 -46 31
-38 22 7 -9 10 -16 5 -16 -20 0 -37 19 -58 66 -13 27 -36 60 -52 74 l-29 25
23 -26 c12 -14 22 -32 22 -40 0 -8 9 -25 20 -39 11 -14 20 -30 20 -36 0 -7 16
-24 35 -38 38 -30 45 -47 16 -43 -20 3 -53 32 -45 40 3 3 -3 4 -13 4 -12 -2
-21 9 -30 33 -11 34 -12 34 -12 7 -1 -32 25 -77 44 -77 29 0 26 -74 -4 -90
-22 -11 -123 63 -115 84 3 8 -4 33 -16 56 -22 43 -23 61 -5 190 7 50 24 100
34 100 3 0 31 -20 62 -44z m433 3 c-4 -8 0 -9 15 -4 19 6 22 2 21 -21 -1 -3 9
-14 22 -24 23 -19 21 -21 -24 -24 -28 -2 -63 25 -46 35 6 4 18 5 27 2 12 -3
12 -1 -2 10 -11 9 -26 13 -35 9 -15 -5 -15 -4 -3 11 15 19 36 24 25 6z m165
-51 c19 -22 25 -35 18 -40 -7 -4 -2 -14 14 -26 13 -11 21 -24 17 -28 -4 -4
-19 5 -32 19 -14 15 -32 27 -41 27 -8 0 -20 11 -25 24 -5 13 -14 27 -20 31 -5
3 -8 11 -5 16 12 19 46 8 74 -23z m-1226 -3 c-7 -21 -13 -19 -13 6 0 11 4 18
10 14 5 -3 7 -12 3 -20z m1352 15 c3 -5 1 -10 -4 -10 -6 0 -11 5 -11 10 0 6 2
10 4 10 3 0 8 -4 11 -10z m-1328 -52 c-3 -7 -5 -2 -5 12 0 14 2 19 5 13 2 -7
2 -19 0 -25z m1143 -58 c0 -5 -7 -6 -17 -3 -11 4 -14 3 -9 -5 4 -7 0 -22 -9
-34 l-17 -23 6 28 c4 16 2 27 -4 27 -26 0 -7 17 20 18 17 0 30 -3 30 -8z m498
-15 c-3 -3 -9 2 -12 12 -6 14 -5 15 5 6 7 -7 10 -15 7 -18z m-436 -17 c24 -24
44 -34 71 -35 82 -5 96 -7 92 -13 -2 -4 7 -12 20 -18 32 -15 32 -28 -2 -46
l-28 -14 26 -7 c14 -3 26 -13 26 -21 0 -12 -10 -13 -46 -9 l-46 6 25 -20 c19
-16 21 -21 9 -21 -9 0 -19 -7 -23 -15 -3 -8 -11 -13 -18 -10 -7 2 -25 7 -40 9
-22 4 -28 1 -28 -14 0 -10 -4 -22 -10 -25 -14 -9 -13 41 2 68 11 21 11 21 19
2 7 -19 8 -19 8 3 1 23 -13 30 -24 12 -13 -21 -24 -9 -19 19 3 16 1 32 -5 35
-5 4 -8 13 -5 20 3 8 -9 23 -30 36 -37 22 -48 50 -21 50 18 0 19 12 3 28 -8 8
-9 12 -1 12 6 0 26 -15 45 -32z m213 22 c3 -5 -1 -10 -9 -10 -9 0 -16 5 -16
10 0 6 4 10 9 10 6 0 13 -4 16 -10z m-1708 -32 c-3 -8 -6 -5 -6 6 -1 11 2 17
5 13 3 -3 4 -12 1 -19z m1453 -115 c0 -7 -4 -13 -8 -13 -5 0 -15 -12 -22 -27
-14 -30 -28 -15 -14 15 4 9 8 20 9 25 2 4 3 9 4 10 4 10 31 2 31 -10z m39 -60
c0 -31 -2 -34 -9 -18 -12 28 -12 55 0 55 6 0 10 -17 9 -37z m-32 -55 c-3 -8
-6 -5 -6 6 -1 11 2 17 5 13 3 -3 4 -12 1 -19z m-1923 -7 c3 -5 -3 -11 -13 -14
-13 -3 -22 -16 -25 -38 -3 -19 -12 -77 -21 -130 -8 -53 -15 -108 -15 -122 0
-14 -3 -28 -8 -30 -4 -3 -6 23 -6 56 l2 62 -7 -55 c-3 -32 -9 -50 -14 -43 -8
12 27 237 44 280 5 14 7 29 3 34 -3 5 8 9 25 9 16 0 32 -4 35 -9z m2018 -33
c-8 -8 -9 -4 -5 13 4 13 8 18 11 10 2 -7 -1 -18 -6 -23z m5 -28 c1 0 0 -6 -3
-14 -3 -8 19 -35 55 -68 56 -51 60 -56 59 -98 0 -41 -10 -59 -31 -60 -5 0 -5
5 -2 10 3 6 -1 13 -10 16 -9 4 -23 20 -32 37 -8 17 -22 38 -30 45 -10 11 -11
17 -3 22 12 8 -17 67 -53 107 l-20 22 34 -9 c19 -6 35 -10 36 -10z m-389 -190
c18 -11 41 -34 50 -50 22 -38 40 -39 34 -1 -6 40 18 45 74 15 35 -19 49 -22
60 -13 10 8 19 6 38 -8 29 -21 33 -33 10 -33 -8 0 -12 -4 -9 -10 3 -5 1 -10
-5 -10 -6 0 -13 7 -16 15 -4 8 -11 15 -16 15 -6 0 -4 -8 3 -17 12 -15 12 -16
-6 -9 -19 7 -19 7 1 -16 11 -13 19 -29 18 -35 -1 -7 -2 -18 -3 -23 0 -6 -12
-8 -26 -4 -15 4 -25 2 -25 -5 0 -6 -7 -8 -15 -4 -9 3 -21 -1 -28 -9 -11 -14
-95 -43 -102 -36 -1 2 -10 28 -19 59 -16 56 -60 144 -77 154 -8 6 10 45 21 45
3 0 20 -9 38 -20z m457 -60 c3 -5 1 -10 -4 -10 -6 0 -11 5 -11 10 0 6 2 10 4
10 3 0 8 -4 11 -10z m-173 -142 c-9 -9 -15 -9 -24 0 -9 9 -7 12 12 12 19 0 21
-3 12 -12z m-549 -25 c-7 -2 -19 -2 -25 0 -7 3 -2 5 12 5 14 0 19 -2 13 -5z
m477 -72 c0 -5 -7 -12 -16 -15 -14 -5 -15 -4 -4 9 14 17 20 19 20 6z"/>
<path d="M1827 1311 c-17 -6 -17 -9 -4 -19 12 -10 16 -9 21 4 8 21 6 23 -17
15z"/>
<path d="M1640 1158 c0 -16 58 -83 65 -76 7 7 -46 88 -57 88 -4 0 -8 -6 -8
-12z"/>
<path d="M1717 1041 c-3 -14 0 -17 19 -13 29 5 30 8 5 21 -15 8 -20 7 -24 -8z"/>
<path d="M1735 959 c-10 -15 3 -25 16 -12 7 7 7 13 1 17 -6 3 -14 1 -17 -5z"/>
<path d="M1871 864 c0 -11 3 -14 6 -6 3 7 2 16 -1 19 -3 4 -6 -2 -5 -13z"/>
<path d="M1756 793 c-7 -7 13 -33 25 -33 5 0 9 6 9 14 0 15 -24 28 -34 19z"/>
<path d="M2170 2516 c0 -18 11 -30 45 -49 34 -19 45 -22 45 -11 0 8 -4 14 -9
14 -5 0 -19 16 -32 35 -28 41 -49 45 -49 11z"/>
<path d="M943 1940 c-46 -28 -41 -35 7 -10 38 19 49 30 33 30 -5 0 -23 -9 -40
-20z"/>
<path d="M1014 1915 c-10 -8 -14 -14 -9 -15 15 0 40 18 34 24 -3 3 -14 -1 -25
-9z"/>
<path d="M1214 1904 c-18 -14 -18 -15 4 -4 12 6 22 13 22 15 0 8 -5 6 -26 -11z"/>
<path d="M1140 1870 c-19 -11 -30 -19 -25 -19 6 0 26 8 45 19 19 11 31 19 25
19 -5 0 -26 -8 -45 -19z"/>
</g>
</svg>
