<?xml version="1.0" standalone="no"?>
<!DOCTYPE svg PUBLIC "-//W3C//DTD SVG 20010904//EN"
 "http://www.w3.org/TR/2001/REC-SVG-20010904/DTD/svg10.dtd">
<svg version="1.0" xmlns="http://www.w3.org/2000/svg"
 width="320.000000pt" height="320.000000pt" viewBox="0 0 320.000000 320.000000"
 preserveAspectRatio="xMidYMid meet">

<g transform="translate(0.000000,320.000000) scale(0.100000,-0.100000)"
fill="#000000" stroke="none">
<path d="M1445 3104 c-143 -19 -252 -45 -372 -90 -495 -183 -865 -630 -953
-1149 -37 -224 -35 -367 12 -584 104 -488 460 -906 926 -1086 160 -62 394
-108 547 -108 207 0 488 69 686 168 182 92 395 272 524 444 258 342 356 784
269 1211 -85 418 -353 788 -729 1004 -265 152 -627 228 -910 190z m-745 -358
c0 -2 -8 -10 -17 -17 -16 -13 -17 -12 -4 4 13 16 21 21 21 13z m-74 -66 c-20
-22 -36 -44 -36 -49 0 -14 26 -32 34 -23 5 4 6 -4 4 -18 -2 -20 1 -25 19 -25
11 0 25 -3 29 -7 4 -4 14 -2 23 5 9 6 -9 -17 -40 -53 -179 -209 -290 -437
-334 -688 -18 -107 -20 -209 -6 -379 11 -130 17 -153 91 -339 55 -139 79 -188
87 -180 4 3 12 1 19 -5 7 -6 -11 36 -39 93 -105 206 -141 355 -141 588 0 145
4 178 27 273 50 200 134 369 259 520 60 72 176 184 153 147 -5 -8 -10 -17 -11
-20 0 -3 -4 -13 -9 -23 -9 -22 -15 -18 70 -53 39 -15 75 -35 82 -44 7 -8 13
-12 13 -7 0 4 9 -2 20 -13 11 -11 27 -20 35 -20 8 0 15 -4 15 -8 0 -5 12 -15
28 -22 15 -8 37 -23 50 -34 20 -17 22 -18 16 -3 -3 9 -3 17 0 17 4 0 11 -12
17 -26 5 -15 12 -24 16 -20 3 3 13 0 22 -7 9 -6 4 5 -12 25 -43 58 -32 53 27
-11 64 -69 60 -50 76 -431 10 -239 16 -324 25 -366 2 -11 5 -119 6 -240 0
-180 -2 -228 -15 -258 -18 -43 -61 -101 -120 -163 -39 -41 -39 -43 -21 -58 15
-10 49 -14 127 -15 58 0 142 -7 185 -15 61 -12 161 -15 452 -15 427 0 377 -12
438 105 19 39 55 104 79 146 50 87 60 131 19 83 -14 -16 -63 -84 -110 -150
l-85 -121 -517 -5 c-285 -3 -524 -3 -530 0 -7 2 -13 10 -13 18 0 16 43 64 58
64 19 0 71 70 79 107 4 21 8 316 8 656 l0 618 -45 42 c-25 23 -54 47 -63 52
-9 6 -20 24 -23 40 l-6 30 139 2 c131 1 325 21 432 44 38 8 50 15 55 33 6 26
48 51 70 43 28 -11 17 -36 -23 -56 -22 -12 -41 -30 -45 -43 -3 -13 -19 -30
-35 -40 -16 -9 -42 -35 -58 -59 -27 -41 -28 -46 -31 -203 -4 -184 8 -393 19
-336 4 22 7 28 9 15 5 -32 18 141 19 250 1 55 5 106 10 114 6 9 9 2 9 -25 0
-21 5 -40 11 -42 6 -2 9 -7 7 -11 -5 -7 12 -9 69 -11 19 -1 25 -4 16 -9 -9 -6
-7 -10 8 -14 12 -3 23 -1 26 3 3 4 29 -1 59 -13 30 -12 52 -25 50 -29 -5 -7
27 -13 49 -9 4 0 7 -3 7 -8 0 -5 14 -14 30 -21 17 -7 30 -16 30 -20 0 -5 9 -6
20 -3 12 3 20 0 20 -7 0 -7 7 -10 15 -6 9 3 21 -4 31 -20 10 -14 23 -23 31
-20 8 3 11 1 8 -4 -3 -6 -1 -10 4 -10 6 0 11 5 11 10 0 6 5 10 10 10 6 0 9 -6
8 -12 -2 -8 5 -12 16 -10 14 3 17 -1 12 -13 -4 -12 -1 -15 12 -11 9 3 24 1 32
-5 13 -9 12 -10 -3 -5 -11 3 -16 2 -12 -4 3 -6 13 -10 21 -10 8 0 17 -7 20
-15 4 -8 10 -12 15 -9 5 3 6 -2 3 -10 -7 -18 22 -36 57 -36 5 0 8 -4 5 -8 -8
-13 40 -36 55 -27 7 5 10 4 6 -2 -10 -16 22 -37 53 -35 18 1 30 -4 34 -14 3
-8 10 -12 16 -9 5 3 10 1 10 -6 0 -8 5 -7 17 2 15 12 16 12 10 -4 -9 -23 14
-32 42 -17 13 7 21 7 21 1 0 -6 7 -8 15 -5 9 4 24 -3 35 -16 18 -21 20 -21 27
-5 6 18 7 18 14 -1 5 -13 8 -6 10 26 l2 45 7 -50 c12 -74 11 -390 0 -464 -30
-179 -218 -445 -426 -598 -236 -174 -518 -261 -809 -250 -214 9 -356 46 -545
143 -116 60 -189 111 -297 209 -112 102 -95 59 21 -51 314 -300 772 -413 1211
-299 424 110 769 435 910 858 47 139 65 255 67 421 1 135 16 166 17 37 1 -56
3 -62 16 -51 13 11 14 10 9 -6 -5 -15 -3 -15 10 3 16 22 18 22 41 7 30 -19 33
-14 38 66 2 30 4 1 5 -65 12 -799 -653 -1465 -1463 -1465 -657 0 -1240 444
-1418 1080 -54 193 -68 452 -33 639 57 311 202 584 425 799 83 80 103 93 47
32z m2431 -922 c-3 -7 -5 -2 -5 12 0 14 2 19 5 13 2 -7 2 -19 0 -25z"/>
<path d="M2112 1788 c-33 -33 -15 -54 160 -185 95 -70 179 -132 188 -137 25
-16 -249 281 -285 309 -38 28 -46 30 -63 13z"/>
<path d="M2263 1030 c-29 -22 -84 -58 -123 -79 -41 -22 -67 -42 -61 -46 6 -3
28 4 49 16 80 49 209 150 190 149 -2 0 -26 -18 -55 -40z"/>
</g>
</svg>
